Children of men (2006) [BDRip720p][Nautilus-BT]
Join www.nautilus-bt.org

[img]http://img708.imageshack.us/img708/7280/4963g.jpg[/img]

Link IMDb : http://www.imdb.com/title/tt0206634/

In 2027, in a chaotic world in which humans can no longer procreate, a former activist agrees to help transport a miraculously pregnant woman to a sanctuary at sea, where her child's birth may help scientists save the future of humankind. 


Titolo italiano : I figli degli uomini
Titolo originale : Children of men
Anno : 2006
Genere : avventura - mistery - fantascienza - thriller
Paese : Gran Bretagna - USA
Sceneggiatura : David Arata, Alfonso Cuarón, Timothy J. Sexton
Regia : Alfonso Cuarón
Soggetto : P. D. James


Lingue : Italiano - Inglese
Sottotitoli : italiano
Sottotitoli per non udenti : inglese
Cartelli italiano
Capitoli : si


[img]http://img255.imageshack.us/img255/9204/childrenofmenquantorobo.png[/img]

General
Complete name                    : I:\I figli degli uomini - Children of men (2006) [BDRip720p Ita-Eng] by Pitt@Sk8.mkv
Format                           : Matroska
File size                        : 4.38 GiB
Duration                         : 1h 49mn
Overall bit rate                 : 5 736 Kbps
Encoded date                     : UTC 2011-01-07 11:45:53
Writing application              : mkvmerge v4.0.0 ('The Stars were mine') built on Jun  6 2010 16:18:42
Writing library                  : libebml v1.0.0 + libmatroska v1.0.0

Video
ID                               : 1
Format                           : AVC
Format/Info                      : Advanced Video Codec
Format profile                   : High@L4.1
Format settings, CABAC           : Yes
Format settings, ReFrames        : 3 frames
Muxing mode                      : Container profile=Unknown@4.1
Codec ID                         : V_MPEG4/ISO/AVC
Duration                         : 1h 49mn
Bit rate mode                    : Variable
Bit rate                         : 4 189 Kbps
Maximum bit rate                 : 50.0 Mbps
Width                            : 1 280 pixels
Height                           : 694 pixels
Display aspect ratio             : 16:9
Frame rate                       : 23.976 fps
Color space                      : YUV
Chroma subsampling               : 4:2:0
Bit depth                        : 8 bits
Scan type                        : Progressive
Bits/(Pixel*Frame)               : 0.197
Stream size                      : 3.13 GiB (71%)
Title                            : BDRip720p by Pitt@Sk8
Writing library                  : x264 core 104 r1713 c276662
Encoding settings                : cabac=1 / ref=3 / deblock=1:0:0 / analyse=0x3:0x133 / me=hex / subme=7 / psy=1 / psy_rd=1.00:0.00 / mixed_ref=1 / me_range=16 / chroma_me=1 / trellis=1 / 8x8dct=1 / cqm=0 / deadzone=21,11 / fast_pskip=1 / chroma_qp_offset=-2 / threads=6 / sliced_threads=0 / slices=4 / nr=0 / decimate=1 / interlaced=0 / constrained_intra=0 / bframes=3 / b_pyramid=1 / b_adapt=1 / b_bias=0 / direct=1 / weightb=1 / open_gop=2 / weightp=2 / keyint=240 / keyint_min=23 / scenecut=40 / intra_refresh=0 / rc_lookahead=40 / rc=2pass / mbtree=1 / bitrate=4189 / ratetol=1.0 / qcomp=0.60 / qpmin=10 / qpmax=51 / qpstep=4 / cplxblur=20.0 / qblur=0.5 / vbv_maxrate=50000 / vbv_bufsize=50000 / ip_ratio=1.40 / aq=1:1.00 / nal_hrd=vbr

Audio #1
ID                               : 2
Format                           : AC-3
Format/Info                      : Audio Coding 3
Mode extension                   : CM (complete main)
Codec ID                         : A_AC3
Duration                         : 1h 49mn
Bit rate mode                    : Constant
Bit rate                         : 448 Kbps
Channel(s)                       : 6 channels
Channel positions                : Front: L C R, Side: L R, LFE
Sampling rate                    : 48.0 KHz
Bit depth                        : 16 bits
Stream size                      : 350 MiB (8%)
Title                            : Italiano AC3 5.1 448 kbps - Pitt@Sk8
Language                         : Italian

Audio #2
ID                               : 3
Format                           : DTS
Format/Info                      : Digital Theater Systems
Codec ID                         : A_DTS
Duration                         : 1h 49mn
Bit rate mode                    : Constant
Bit rate                         : 755 Kbps
Channel(s)                       : 6 channels
Channel positions                : Front: L C R, Side: L R, LFE
Sampling rate                    : 48.0 KHz
Bit depth                        : 24 bits
Stream size                      : 590 MiB (13%)
Title                            : Italiano DTS 5.1 768 kbps - Pitt@Sk8
Language                         : Italian

Audio #3
ID                               : 4
Format                           : AC-3
Format/Info                      : Audio Coding 3
Mode extension                   : CM (complete main)
Codec ID                         : A_AC3
Duration                         : 1h 49mn
Bit rate mode                    : Constant
Bit rate                         : 320 Kbps
Channel(s)                       : 6 channels
Channel positions                : Front: L C R, Side: L R, LFE
Sampling rate                    : 48.0 KHz
Bit depth                        : 16 bits
Stream size                      : 250 MiB (6%)
Title                            : English AC3 5.1 320 kbps - Pitt@Sk8
Language                         : English

Text #1
ID                               : 5
Format                           : VobSub
Codec ID                         : S_VOBSUB
Codec ID/Info                    : The same subtitle format used on DVDs
Title                            : Cartelli - Italiano
Language                         : Italian

Text #2
ID                               : 6
Format                           : VobSub
Codec ID                         : S_VOBSUB
Codec ID/Info                    : The same subtitle format used on DVDs
Title                            : Sottotitoli - Italiano
Language                         : Italian

Text #3
ID                               : 7
Format                           : VobSub
Codec ID                         : S_VOBSUB
Codec ID/Info                    : The same subtitle format used on DVDs
Title                            : Subtitle English [deaf]
Language                         : English

Menu
00:00:00.000                     : en:Capitolo 01 - Pitt@Sk8
00:07:17.896                     : en:Capitolo 02 - Pitt@Sk8
00:11:02.662                     : en:Capitolo 03 - Pitt@Sk8
00:16:44.670                     : en:Capitolo 04 - Pitt@Sk8
00:21:07.975                     : en:Capitolo 05 - Pitt@Sk8
00:25:53.135                     : en:Capitolo 06 - Pitt@Sk8
00:30:20.986                     : en:Capitolo 07 - Pitt@Sk8
00:37:27.078                     : en:Capitolo 08 - Pitt@Sk8
00:42:37.889                     : en:Capitolo 09 - Pitt@Sk8
00:47:31.515                     : en:Capitolo 10 - Pitt@Sk8
00:55:28.408                     : en:Capitolo 11 - Pitt@Sk8
01:00:23.662                     : en:Capitolo 12 - Pitt@Sk8
01:07:08.441                     : en:Capitolo 13 - Pitt@Sk8
01:11:53.226                     : en:Capitolo 14 - Pitt@Sk8
01:16:26.707                     : en:Capitolo 15 - Pitt@Sk8
01:21:21.627                     : en:Capitolo 16 - Pitt@Sk8
01:23:50.609                     : en:Capitolo 17 - Pitt@Sk8
01:31:26.564                     : en:Capitolo 18 - Pitt@Sk8
01:34:48.600                     : en:Capitolo 19 - Pitt@Sk8
01:40:18.387                     : en:Capitolo 20 - Pitt@Sk8

[img]http://img708.imageshack.us/img708/3227/ifiglidegliuominichildrj.jpg[/img]

[img]http://img683.imageshack.us/img683/6677/ifiglidegliuominichildr.jpg[/img]

[img]http://img209.imageshack.us/img209/6677/ifiglidegliuominichildr.jpg[/img]

[img]http://img708.imageshack.us/img708/6677/ifiglidegliuominichildr.jpg[/img]

[img]http://img525.imageshack.us/img525/6677/ifiglidegliuominichildr.jpg[/img]

[img]http://img5.imageshack.us/img5/6677/ifiglidegliuominichildr.jpg[/img]

Join www.nautilus-bt.org
